<svg xmlns="http://www.w3.org/2000/svg" xmlns:xlink="http://www.w3.org/1999/xlink" viewBox="0 0 60 60">
  <defs>
    <linearGradient id="a" x1="29" y1="31.3" x2="55.7" y2="31.3" gradientUnits="userSpaceOnUse">
      <stop offset="0" stop-color="#56d679"/>
      <stop offset="1" stop-color="#10642a"/>
    </linearGradient>
    <linearGradient id="b" x1="33.3" y1="21.2" x2="45.2" y2="21.2" xlink:href="#a"/>
    <linearGradient id="c" x1="15.4" y1="9.4" x2="36.6" y2="28" xlink:href="#a"/>
    <linearGradient id="d" x1="4.3" y1="28.7" x2="31" y2="28.7" xlink:href="#a"/>
    <linearGradient id="e" x1="14.8" y1="38.8" x2="26.7" y2="38.8" xlink:href="#a"/>
    <linearGradient id="f" x1="21.9" y1="42.9" x2="45.2" y2="42.9" xlink:href="#a"/>
  </defs>
  <path d="M30 39.2a1 1 0 0 1 0-2c14 0 23.7-3.8 23.7-7.2 0-1.6-2.2-3.3-5.8-4.6a1 1 0 0 1 .7-1.8c4.6 1.6 7 3.9 7 6.4 0 6-13.1 9.2-25.6 9.2z" fill="url(#a)"/>
  <path d="M37 35a1 1 0 0 1-.4 0 1 1 0 0 1-.4-1.4 56.8 56.8 0 0 0 6.5-16c1-4.2.6-7.3-.9-8s-3.9.2-6.8 2.6a1 1 0 1 1-1.3-1.5c3.8-3.2 7-4.2 9.1-3s3 5 2 10.3A58.6 58.6 0 0 1 38 34.6a1 1 0 0 1-1 .5z" fill="url(#b)"/>
  <path d="M37 27a1 1 0 0 1-.8-.6c-7-12-15.1-18.6-18-16.9-1.4.8-1.8 3.5-1.1 7.3a1 1 0 0 1-2 .3c-.9-4.8-.2-8 2-9.3 5.2-3 14.6 6.8 20.8 17.6A1 1 0 0 1 37 27z" fill="url(#c)"/>
  <path d="M11.8 36.5a1 1 0 0 1-.4 0c-4.6-1.7-7-4-7-6.5 0-6 13.2-9.2 25.6-9.2a1 1 0 0 1 0 2c-14 0-23.7 3.8-23.7 7.2 0 1.6 2.2 3.3 5.8 4.6a1 1 0 0 1-.3 2z" fill="url(#d)"/>
  <path d="M19.2 52.8a4.1 4.1 0 0 1-2-.6c-2.4-1.3-3-4.8-2-10.2A58.6 58.6 0 0 1 22 25.4a1 1 0 0 1 1.4-.3 1 1 0 0 1 .4 1.3 56.8 56.8 0 0 0-6.6 16c-.8 4.2-.5 7.3 1 8s3.9-.1 6.8-2.6a1 1 0 0 1 1.3 1.5c-2.7 2.3-5.1 3.5-7 3.5z" fill="url(#e)"/>
  <path d="M40.8 52.8c-2.1 0-4.7-1.4-7.7-4a58.8 58.8 0 0 1-11-14.2 1 1 0 0 1 .3-1.4 1 1 0 0 1 1.4.4 56.7 56.7 0 0 0 10.6 13.7c3.2 2.8 6 4 7.4 3.2s1.8-3.5 1.1-7.3a1 1 0 0 1 .8-1.1 1 1 0 0 1 1.2.8c.8 4.9.1 8-2 9.4a4.1 4.1 0 0 1-2.1.5z" fill="url(#f)"/>
  <path d="M33.5 29H31v-2.5a1 1 0 0 0-2 0V29h-2.5a1 1 0 0 0 0 2H29v2.5a1 1 0 0 0 2 0V31h2.5a1 1 0 0 0 0-2z" fill="#3dbb61"/>
  <path fill="none" d="M0 0h60v60H0z"/>
</svg>