<svg xmlns="http://www.w3.org/2000/svg" xmlns:xlink="http://www.w3.org/1999/xlink" viewBox="0 0 60 60"><defs><linearGradient id="linear-gradient" x1="29" y1="31.33" x2="55.68" y2="31.33" gradientUnits="userSpaceOnUse"><stop offset="0" stop-color="#56d679"/><stop offset="1" stop-color="#10642a"/></linearGradient><linearGradient id="linear-gradient-2" x1="33.34" y1="21.16" x2="45.23" y2="21.16" xlink:href="#linear-gradient"/><linearGradient id="linear-gradient-3" x1="15.44" y1="9.41" x2="36.56" y2="28.01" xlink:href="#linear-gradient"/><linearGradient id="linear-gradient-4" x1="4.32" y1="28.67" x2="31" y2="28.67" xlink:href="#linear-gradient"/><linearGradient id="linear-gradient-5" x1="14.77" y1="38.84" x2="26.66" y2="38.84" xlink:href="#linear-gradient"/><linearGradient id="linear-gradient-6" x1="21.92" y1="42.93" x2="45.23" y2="42.93" xlink:href="#linear-gradient"/></defs><title>crc-icon</title><g id="artwork"><path d="M30,39.18a1,1,0,0,1,0-2c14,0,23.68-3.79,23.68-7.18,0-1.55-2.17-3.26-5.79-4.57a1,1,0,0,1,.68-1.88c4.65,1.69,7.11,3.92,7.11,6.45C55.68,36,42.45,39.18,30,39.18Z" fill="url(#linear-gradient)"/><path d="M37.08,35.09a.93.93,0,0,1-.5-.14,1,1,0,0,1-.36-1.36,56.82,56.82,0,0,0,6.53-16c.88-4.23.53-7.25-.91-8.08s-3.9.24-6.85,2.72a1,1,0,1,1-1.29-1.53c3.78-3.18,6.94-4.19,9.14-2.93s3,4.88,1.87,10.22A58.57,58.57,0,0,1,38,34.59,1,1,0,0,1,37.08,35.09Z" fill="url(#linear-gradient-2)"/><path d="M37.08,26.91a1,1,0,0,1-.86-.5C29.24,14.33,21.1,7.79,18.16,9.5c-1.34.77-1.74,3.5-1.06,7.3a1,1,0,0,1-2,.34c-.87-4.87-.16-8.11,2-9.38,5.16-3,14.56,6.87,20.79,17.65a1,1,0,0,1-.87,1.5Z" fill="url(#linear-gradient-3)"/><path d="M11.77,36.51a1,1,0,0,1-.34-.06C6.78,34.76,4.32,32.53,4.32,30c0-6,13.23-9.18,25.68-9.18a1,1,0,0,1,0,2C16.05,22.82,6.32,26.61,6.32,30c0,1.55,2.17,3.26,5.79,4.57a1,1,0,0,1-.34,1.94Z" fill="url(#linear-gradient-4)"/><path d="M19.22,52.77a4.1,4.1,0,0,1-2.06-.53c-2.33-1.35-3-4.88-1.87-10.22a58.57,58.57,0,0,1,6.76-16.61,1,1,0,0,1,1.37-.36,1,1,0,0,1,.36,1.36,56.82,56.82,0,0,0-6.53,16c-.88,4.23-.53,7.25.91,8.08s3.9-.24,6.86-2.72a1,1,0,0,1,1.28,1.53C23.58,51.6,21.17,52.77,19.22,52.77Z" fill="url(#linear-gradient-5)"/><path d="M40.77,52.77c-2.1,0-4.72-1.36-7.72-4a58.82,58.82,0,0,1-11-14.16,1,1,0,0,1,.37-1.37,1,1,0,0,1,1.36.37,56.69,56.69,0,0,0,10.6,13.66c3.23,2.88,6,4.09,7.46,3.25s1.74-3.5,1.06-7.29a1,1,0,0,1,.81-1.16,1,1,0,0,1,1.16.81c.87,4.87.16,8.11-2,9.38A4.14,4.14,0,0,1,40.77,52.77Z" fill="url(#linear-gradient-6)"/><path d="M33.5,29H31V26.5a1,1,0,0,0-2,0V29H26.5a1,1,0,0,0,0,2H29v2.5a1,1,0,0,0,2,0V31h2.5a1,1,0,0,0,0-2Z" fill="#3dbb61"/><rect width="60" height="60" fill="none"/></g></svg>